# Blender v2.71 (sub 0) OBJ File: 'barn1.blend'
# www.blender.org
mtllib barn1.mtl
o Cube_Cube.001
v -11.872501 -6.799389 21.501385
v -11.872501 -6.799389 -21.359104
v 13.605450 -6.799389 -21.359104
v 13.605450 -6.799389 21.501385
v -11.872501 0.224318 21.501385
v -11.872501 0.224318 -21.359104
v 13.605450 0.224318 -21.359104
v 13.605450 0.224318 21.501385
v -11.872501 -3.023226 21.501385
v -11.872501 5.016688 0.071140
v -11.872501 -3.023226 -21.359104
v -11.872501 -6.799389 0.071140
v 0.866474 0.224318 -21.359104
v 13.605450 -3.023226 -21.359104
v 0.866474 -6.799389 -21.359104
v 13.605450 5.016688 0.071140
v 13.605450 -3.023226 21.501385
v 13.605450 -6.799389 0.071140
v 0.866474 0.224318 21.501385
v 0.866474 -6.799389 21.501385
v -11.872501 -0.891350 0.071140
v 0.866474 -3.023226 -21.359104
v 13.605450 -0.891350 0.071140
v 0.866474 -3.023226 21.501385
v 0.866474 -14.383181 0.071140
v -11.872501 -0.912138 21.501385
v -11.872501 5.016688 -7.428860
v -11.872501 -5.134315 -21.359104
v -11.872501 -6.799389 7.571140
v 7.235962 0.224318 -21.359104
v 13.605450 -5.134315 -21.359104
v -5.503014 -6.799389 -21.359104
v 13.605450 5.016688 7.571140
v 13.605450 -5.134315 21.501385
v 13.605450 -6.799389 -7.428860
v -5.503014 0.224318 21.501385
v 7.235962 -6.799389 21.501385
v -11.872501 -5.134315 21.501385
v -11.872501 5.016688 7.571140
v -11.872501 -0.912138 -21.359104
v -11.872501 -6.799389 -7.428860
v -5.503014 0.224318 -21.359104
v 13.605450 -0.912138 -21.359104
v 7.235962 -6.799389 -21.359104
v 13.605450 5.016688 -7.428860
v 13.605450 -0.912138 21.501385
v 13.605450 -6.799389 7.571140
v 7.235962 0.224318 21.501385
v -5.503014 -6.799389 21.501385
v -11.872501 -3.845369 0.071140
v -11.872501 2.062669 0.071140
v -11.872501 -0.891350 7.571140
v -11.872501 -0.891350 -7.428860
v 0.866474 -5.134315 -21.359104
v 0.866474 -0.912138 -21.359104
v -5.503014 -3.023226 -21.359104
v 7.235962 -3.023226 -21.359104
v 13.605450 -3.845369 0.071140
v 13.605450 2.062669 0.071140
v 13.605450 -0.891350 -7.428860
v 13.605450 -0.891350 7.571140
v 0.866474 -5.134315 21.501385
v 0.866474 -0.912138 21.501385
v 7.235962 -3.023226 21.501385
v -5.503014 -3.023226 21.501385
v 17.061909 -14.383181 0.071140
v -15.328960 -14.383181 0.071140
v 0.866474 -14.383181 24.018160
v 0.866474 -14.383181 -23.875879
v 0.866474 5.016688 7.571140
v 0.866474 5.016688 -7.428860
v -11.872501 -3.845369 -7.428860
v 7.235962 -5.134315 -21.359104
v 13.605450 -3.845369 7.571140
v -5.503014 -5.134315 21.501385
v 17.061909 -14.383181 -23.875879
v -5.503014 5.016688 -7.428860
v -11.872501 -3.845369 7.571140
v -11.872501 2.062669 7.571140
v -11.872501 2.062669 -7.428860
v -5.503014 -5.134315 -21.359104
v -5.503014 -0.912138 -21.359104
v 7.235962 -0.912138 -21.359104
v 13.605450 -3.845369 -7.428860
v 13.605450 2.062669 -7.428860
v 13.605450 2.062669 7.571140
v 7.235962 -5.134315 21.501385
v 7.235962 -0.912138 21.501385
v -5.503014 -0.912138 21.501385
v 17.061909 -14.383181 24.018160
v -15.328960 -14.383181 24.018160
v -15.328960 -14.383181 -23.875879
v -5.503014 5.016688 7.571140
v 7.235962 5.016688 7.571140
v 7.235962 5.016688 -7.428860
v -11.872501 13.356985 0.071140
v 13.605450 13.356985 0.071140
v 0.866474 12.815140 0.071140
v -11.872501 10.653431 -4.895211
v 13.605450 10.653431 5.037492
v -11.872501 10.653431 5.037492
v 13.605450 10.653431 -4.895211
v -5.503014 12.815140 0.071140
v 7.235962 12.815140 0.071140
v 0.866474 10.756688 5.037492
v 0.866474 10.756688 -4.895211
v -5.503014 10.756688 -4.895211
v -5.503014 10.756688 5.037492
v 7.235962 10.756688 5.037492
v 7.235962 10.756688 -4.895211
vt 0.544723 0.180800
vt 0.256929 0.107912
vt 0.256974 0.049176
vt 0.544826 0.049099
vt 0.080649 0.118871
vt 0.024307 0.118365
vt 0.024342 0.058172
vt 0.080683 0.058679
vt 0.528428 0.151956
vt 0.271668 0.098266
vt 0.271732 0.037908
vt 0.528541 0.044875
vt 0.195740 0.261995
vt 0.249483 0.262476
vt 0.249450 0.319587
vt 0.195707 0.319106
vt 0.552707 0.785175
vt 0.465998 0.521983
vt 0.534418 0.529376
vt 0.459027 0.503766
vt 0.199636 0.329856
vt 0.260568 0.329995
vt 0.516554 0.503897
vt 0.764218 0.182267
vt 0.654471 0.181534
vt 0.654573 0.049833
vt 0.764321 0.050566
vt 0.765967 0.377310
vt 0.656219 0.376577
vt 0.654369 0.313235
vt 0.764116 0.313968
vt 0.546472 0.375843
vt 0.256813 0.256853
vt 0.256871 0.182382
vt 0.544621 0.312502
vt 0.193331 0.119885
vt 0.136990 0.119378
vt 0.137025 0.059186
vt 0.193366 0.059692
vt 0.193243 0.272516
vt 0.136902 0.272010
vt 0.136946 0.195694
vt 0.193287 0.196201
vt 0.080560 0.271503
vt 0.024219 0.270996
vt 0.024263 0.194680
vt 0.080604 0.195187
vt 0.771309 0.153149
vt 0.649869 0.152553
vt 0.649982 0.045471
vt 0.771422 0.046067
vt 0.771083 0.367311
vt 0.649642 0.366715
vt 0.649756 0.259634
vt 0.771196 0.260230
vt 0.528202 0.366119
vt 0.271507 0.251317
vt 0.271587 0.174792
vt 0.528315 0.259038
vt 0.088255 0.261034
vt 0.141997 0.261514
vt 0.141964 0.318626
vt 0.088221 0.318145
vt 0.088339 0.116215
vt 0.142081 0.116696
vt 0.142039 0.189105
vt 0.088297 0.188624
vt 0.195824 0.117177
vt 0.249567 0.117657
vt 0.249525 0.190067
vt 0.195782 0.189586
vt 0.464460 0.732175
vt 0.396954 0.717059
vt 0.401968 0.558690
vt 0.443386 0.567964
vt 0.762007 0.442843
vt 0.652260 0.442594
vt 0.652480 0.345779
vt 0.762228 0.346029
vt 0.337560 0.761927
vt 0.329157 0.507196
vt 0.397578 0.514590
vt 0.445134 0.773551
vt 0.460798 0.497614
vt 0.528865 0.497769
vt 0.564194 0.772806
vt 0.503753 0.760478
vt 0.392731 0.497459
vt 0.443311 0.748151
vt 0.343972 0.503504
vt 0.077772 0.329579
vt 0.138704 0.329718
vt 0.401499 0.503635
vt 0.329447 0.701944
vt 0.360549 0.549415
vt 0.542733 0.345529
vt 0.542953 0.248715
vt 0.652701 0.248965
vt 0.564869 0.771865
vt 0.501607 0.760468
vt 0.464294 0.508291
vt 0.529106 0.508439
vt 0.438344 0.749070
vt 0.399483 0.508144
vt 0.970048 0.113835
vt 0.970096 0.051378
vt 0.969986 0.193023
vt 0.969925 0.272211
vt 0.969891 0.314840
vt 0.777583 0.462136
vt 0.663930 0.486793
vt 0.530745 0.499732
vt 0.258735 0.324286
vt 0.249672 0.120392
vt 0.249707 0.060199
vt 0.249628 0.196707
vt 0.249584 0.273023
vt 0.249561 0.314106
vt 0.193219 0.313599
vt 0.136878 0.313092
vt 0.080537 0.312586
vt 0.024196 0.312079
vt 0.965668 0.101673
vt 0.965732 0.041315
vt 0.965587 0.178199
vt 0.965506 0.254724
vt 0.971322 0.311545
vt 0.776829 0.466580
vt 0.657342 0.467937
vt 0.524183 0.498590
vt 0.259744 0.329622
vt 0.034512 0.260553
vt 0.034479 0.317664
vt 0.034554 0.188144
vt 0.034596 0.115734
vt 0.034618 0.076754
vt 0.088361 0.077235
vt 0.142104 0.077716
vt 0.195847 0.078197
vt 0.249590 0.078678
vt 0.520315 0.585189
vt 0.387827 0.489213
vt 0.439787 0.754891
vt 0.334437 0.742140
vt 0.323647 0.481445
vt 0.762449 0.249215
vt 0.452007 0.496981
vt 0.545138 0.767643
vt 0.575477 0.772713
vt 0.490928 0.761166
vt 0.541257 0.549789
vt 0.445408 0.754949
vt 0.408401 0.531644
vt 0.542512 0.442343
vt 0.399887 0.748732
vt 0.275544 0.513499
vt 0.260737 0.499803
vt 0.451421 0.500585
vt 0.194886 0.332263
vt 0.251148 0.332392
vt 0.512639 0.500724
vt 0.390202 0.500445
vt 0.138623 0.332135
vt 0.375081 0.737673
vt 0.334672 0.507996
vt 0.328984 0.500306
vt 0.082361 0.332007
vt 0.267765 0.500166
vt 0.026099 0.331879
vt 0.311818 0.726276
vt 0.269860 0.507848
vt 0.324665 0.497304
vt 0.382869 0.735823
vt 0.256598 0.497149
vt 0.322428 0.723496
vt 0.286444 0.503373
vt 0.016840 0.329440
vt 0.366342 0.736760
vt 0.427860 0.900989
vt 0.354627 0.893486
vt 0.304617 0.728398
vt 0.489792 0.753487
vt 0.574328 0.935527
vt 0.501094 0.918258
vt 0.428067 0.745124
vt 0.373593 0.742080
vt 0.442864 0.901310
vt 0.383316 0.888322
vt 0.310986 0.731679
vt 0.436200 0.752480
vt 0.502411 0.914299
vt 0.551517 0.761849
vt 0.655374 0.958655
vt 0.498808 0.762880
vt 0.561959 0.927287
vt 0.561415 0.773280
vt 0.621506 0.940275
vt 0.739358 0.756644
vt 0.657628 0.957158
vt 0.734454 0.763976
vt 0.657781 0.964103
vt 0.572811 0.777339
vt 0.567624 0.774724
vt 0.259467 0.473677
vt 0.516187 0.504749
vt 0.283620 0.532190
vt 0.315339 0.737185
vn -1.000000 0.000000 0.000000
vn 0.000000 0.000000 -1.000000
vn 1.000000 0.000000 0.000000
vn 0.000000 0.000000 1.000000
vn 0.000000 0.315000 -0.949100
vn 0.000000 0.945600 -0.325300
vn 0.909900 0.414700 0.000000
vn 0.000000 -1.000000 0.000000
vn -0.003300 0.406900 -0.913500
vn 0.000000 0.403800 -0.914800
vn -0.003300 0.406900 0.913500
vn 0.000000 0.403800 0.914800
vn 0.000000 0.315000 0.949100
vn -0.909900 0.414700 0.000000
vn 0.000000 0.945600 0.325300
vn 0.003300 0.406900 0.913500
vn 0.003300 0.406900 -0.913500
vn 0.031000 0.901300 0.432100
vn 0.000000 0.923800 0.382900
vn 0.031000 0.901300 -0.432100
vn 0.000000 0.923800 -0.382900
vn -0.031000 0.901300 0.432100
vn -0.031000 0.901300 -0.432100
usemtl None
s off
f 72/1/1 28/2/1 2/3/1 41/4/1
f 73/5/2 31/6/2 3/7/2 44/8/2
f 74/9/3 34/10/3 4/11/3 47/12/3
f 75/13/4 38/14/4 1/15/4 49/16/4
f 76/17/5 44/18/5 3/19/5
f 77/20/6 42/21/6 6/22/6 27/23/6
f 78/24/1 50/25/1 12/26/1 29/27/1
f 79/28/1 51/29/1 21/30/1 52/31/1
f 80/32/1 40/33/1 11/34/1 53/35/1
f 81/36/2 54/37/2 15/38/2 32/39/2
f 82/40/2 55/41/2 22/42/2 56/43/2
f 83/44/2 43/45/2 14/46/2 57/47/2
f 84/48/3 58/49/3 18/50/3 35/51/3
f 85/52/3 59/53/3 23/54/3 60/55/3
f 86/56/3 46/57/3 17/58/3 61/59/3
f 87/60/4 62/61/4 20/62/4 37/63/4
f 88/64/4 63/65/4 24/66/4 64/67/4
f 89/68/4 26/69/4 9/70/4 65/71/4
f 90/72/7 66/73/7 18/74/7 47/75/7
f 91/76/8 67/77/8 25/78/8 68/79/8
f 92/80/5 32/81/5 15/82/5 69/83/5
f 77/84/9 27/85/9 99/86/9 107/87/9
f 71/88/10 77/84/10 107/87/10 106/89/10
f 95/90/6 30/91/6 13/92/6 71/93/6
f 50/25/1 72/1/1 41/4/1 12/26/1
f 21/30/1 53/35/1 72/1/1 50/25/1
f 53/35/1 11/34/1 28/2/1 72/1/1
f 54/37/2 73/5/2 44/8/2 15/38/2
f 22/42/2 57/47/2 73/5/2 54/37/2
f 57/47/2 14/46/2 31/6/2 73/5/2
f 58/49/3 74/9/3 47/12/3 18/50/3
f 23/54/3 61/59/3 74/9/3 58/49/3
f 61/59/3 17/58/3 34/10/3 74/9/3
f 62/61/4 75/13/4 49/16/4 20/62/4
f 24/66/4 65/71/4 75/13/4 62/61/4
f 65/71/4 9/70/4 38/14/4 75/13/4
f 66/73/7 76/94/7 35/95/7 18/74/7
f 25/78/8 69/96/8 76/97/8 66/98/8
f 69/83/5 15/82/5 44/18/5 76/17/5
f 39/99/11 93/100/11 108/101/11 101/102/11
f 93/100/12 70/103/12 105/104/12 108/101/12
f 71/93/6 13/92/6 42/21/6 77/20/6
f 38/105/1 78/24/1 29/27/1 1/106/1
f 9/107/1 52/31/1 78/24/1 38/105/1
f 52/31/1 21/30/1 50/25/1 78/24/1
f 26/108/1 79/28/1 52/31/1 9/107/1
f 5/109/1 39/110/1 79/28/1 26/108/1
f 39/110/1 10/111/1 51/29/1 79/28/1
f 51/29/1 80/32/1 53/35/1 21/30/1
f 10/111/1 27/112/1 80/32/1 51/29/1
f 27/112/1 6/113/1 40/33/1 80/32/1
f 28/114/2 81/36/2 32/39/2 2/115/2
f 11/116/2 56/43/2 81/36/2 28/114/2
f 56/43/2 22/42/2 54/37/2 81/36/2
f 40/117/2 82/40/2 56/43/2 11/116/2
f 6/118/2 42/119/2 82/40/2 40/117/2
f 42/119/2 13/120/2 55/41/2 82/40/2
f 55/41/2 83/44/2 57/47/2 22/42/2
f 13/120/2 30/121/2 83/44/2 55/41/2
f 30/121/2 7/122/2 43/45/2 83/44/2
f 31/123/3 84/48/3 35/51/3 3/124/3
f 14/125/3 60/55/3 84/48/3 31/123/3
f 60/55/3 23/54/3 58/49/3 84/48/3
f 43/126/3 85/52/3 60/55/3 14/125/3
f 7/127/3 45/128/3 85/52/3 43/126/3
f 45/128/3 16/129/3 59/53/3 85/52/3
f 59/53/3 86/56/3 61/59/3 23/54/3
f 16/129/3 33/130/3 86/56/3 59/53/3
f 33/130/3 8/131/3 46/57/3 86/56/3
f 34/132/4 87/60/4 37/63/4 4/133/4
f 17/134/4 64/67/4 87/60/4 34/132/4
f 64/67/4 24/66/4 62/61/4 87/60/4
f 46/135/4 88/64/4 64/67/4 17/134/4
f 8/136/4 48/137/4 88/64/4 46/135/4
f 48/137/4 19/138/4 63/65/4 88/64/4
f 63/65/4 89/68/4 65/71/4 24/66/4
f 19/138/4 36/139/4 89/68/4 63/65/4
f 36/139/4 5/140/4 26/69/4 89/68/4
f 90/72/7 47/75/7 4/141/7
f 20/142/13 68/143/13 90/144/13 37/145/13
f 68/79/8 25/78/8 66/98/8 90/146/8
f 49/147/13 91/148/13 68/143/13 20/142/13
f 1/149/14 29/150/14 91/151/14
f 29/150/14 12/152/14 67/153/14 91/151/14
f 67/77/8 92/154/8 69/96/8 25/78/8
f 12/152/14 41/155/14 92/156/14 67/153/14
f 2/157/5 32/81/5 92/80/5
f 36/158/15 93/159/15 39/160/15 5/161/15
f 19/162/15 70/163/15 93/159/15 36/158/15
f 70/103/12 94/164/12 109/165/12 105/104/12
f 48/166/15 94/167/15 70/163/15 19/162/15
f 8/168/15 33/169/15 94/167/15 48/166/15
f 94/164/16 33/170/16 100/171/16 109/165/16
f 95/172/10 71/88/10 106/89/10 110/173/10
f 45/174/17 95/172/17 110/173/17 102/175/17
f 45/176/6 7/177/6 30/91/6 95/90/6
f 108/178/18 103/179/18 96/180/18 101/181/18
f 109/182/19 104/183/19 98/184/19 105/185/19
f 103/186/20 107/187/20 99/188/20 96/189/20
f 98/190/21 106/191/21 107/187/21 103/186/21
f 105/185/19 98/184/19 103/179/19 108/178/19
f 100/192/22 97/193/22 104/183/22 109/182/22
f 104/194/21 110/195/21 106/191/21 98/190/21
f 97/196/23 102/197/23 110/195/23 104/194/23
f 16/129/3 45/128/3 102/198/3 97/199/3
f 10/111/1 39/110/1 101/200/1 96/201/1
f 33/130/3 16/129/3 97/199/3 100/202/3
f 27/112/1 10/111/1 96/201/1 99/203/1
f 37/145/13 90/144/13 4/204/13
f 49/147/13 1/205/13 91/148/13
f 35/95/7 76/94/7 3/206/7
f 41/155/14 2/207/14 92/156/14
