# Blender v2.71 (sub 0) OBJ File: 'tree.blend'
# www.blender.org
mtllib tree.mtl
o Plane.004
v 0.997059 -0.1111 0.332383
v 1.024492 -2.1111 0.115785
v -0.987091 -0.1111 0.081083
v -0.959658 -2.1111 -0.135516
v 0.609198 -0.1111 -0.855996
v 0.415238 -2.1111 -0.956231
v -0.309006 -0.1111 0.920771
v -0.502966 -2.1111 0.820536
v -0.641425 -0.1111 -0.898614
v -0.799906 -2.1111 -0.748444
v 0.734210 -0.1111 0.553153
v 0.575729 -2.1111 0.703323
v -1.563826 -0.1111 0.242354
v -0.972058 -2.1111 0.440460
v 0.750922 -0.1111 -0.598294
v 0.842691 -2.1111 -0.400188
v -0.179195 -0.1111 1.000000
v 0.039133 -2.1111 1.000000
v -0.179195 -0.1111 -1.000000
v 0.039133 -2.1111 -1.000000
vt 0.000897 0.999191
vt 0.000731 0.000244
vt 0.999807 0.000175
vt 0.999565 0.999616
vt 0.001165 0.999514
vt 0.000676 0.000630
vt 0.999546 0.000643
vt 0.999683 0.999284
vt 0.000606 0.999457
vt 0.000551 0.000358
vt 0.999245 0.000733
vt 0.999411 0.999538
vt 0.000840 0.999968
vt -0.000552 0.000837
vt 0.998554 -0.000803
vt 1.000640 0.998772
vt 0.000859 0.999911
vt -0.000186 0.000894
vt 0.998682 -0.000030
vt 0.999992 0.998902
vn 0.124900 0.109200 -0.986100
vn -0.883100 0.109200 -0.456400
vn -0.721500 0.109200 0.683700
vn 0.417800 0.109200 0.902000
vn 0.994000 0.109200 0.000000
usemtl None
s off
f 1/1/5 2/2/5 4/3/2 3/4/2
f 5/5/1 6/6/1 8/7/3 7/8/3
f 9/9/2 10/10/2 12/11/4 11/12/4
f 13/13/3 14/14/3 16/15/5 15/16/5
f 17/17/4 18/18/4 20/19/1 19/20/1
