# Blender v2.79 (sub 0) OBJ File: 'untitled.blend'
# www.blender.org
mtllib turret.mtl
o turret
v 1.770916 2.345661 -1.494986
v 1.770916 2.345661 -2.594957
v 0.993119 2.345661 -2.272782
v 0.670945 2.345661 -1.494985
v 0.993120 2.345661 -0.717188
v 1.770917 2.345661 -0.395014
v 2.548714 2.345661 -0.717189
v 2.870888 2.345661 -1.494986
v 2.548713 2.345661 -2.272783
v 1.770916 1.638436 -2.690737
v 0.993119 2.345661 -2.272782
v 1.770916 2.345661 -2.594957
v 0.925392 1.638436 -2.340509
v 0.670945 2.345661 -1.494985
v 0.575165 1.638436 -1.494985
v 0.993120 2.345661 -0.717188
v 0.925393 1.638436 -0.649461
v 1.770917 2.345661 -0.395014
v 1.770917 1.638436 -0.299234
v 2.548714 2.345661 -0.717189
v 2.616441 1.638436 -0.649462
v 2.870888 2.345661 -1.494986
v 2.966667 1.638436 -1.494986
v 2.548713 2.345661 -2.272783
v 2.616440 1.638436 -2.340510
v 2.585363 -0.459924 2.757208
v 3.326478 -0.459924 -0.052139
v 3.326478 1.640077 -0.052139
v 2.585363 1.249713 2.757208
v 3.337746 -0.459924 -0.841154
v 3.337747 1.640077 -0.841154
v 3.072345 -0.459924 -1.816324
v 3.072345 1.640077 -1.816324
v 2.548852 -0.459924 -2.565733
v 2.548852 1.640077 -2.565733
v 1.809774 -0.459924 -3.120013
v 1.809774 1.640077 -3.120013
v 2.187420 -0.459924 -4.150357
v 2.187421 1.640077 -4.150357
v -1.740688 -0.459924 -4.136891
v -1.361512 -0.459924 -3.137247
v -1.361512 1.640077 -3.137247
v -1.740688 1.640077 -4.136891
v -2.082445 -0.459924 -2.565763
v -2.082445 1.640077 -2.565763
v -2.616246 -0.459924 -1.894004
v -2.616246 1.640077 -1.894004
v -2.957006 -0.459924 -0.841307
v -2.957006 1.640077 -0.841307
v -2.960704 -0.459924 -0.054075
v -2.960704 1.640077 -0.054075
v -2.137096 -0.459924 2.757210
v -2.137096 1.249713 2.757210
v 2.127198 1.242206 2.744741
v 2.127198 0.404631 3.066886
v 2.502692 0.404631 3.066886
v 2.585456 1.242206 2.744741
v 2.127198 -0.255765 2.744741
v 2.585456 -0.255765 2.744741
v 2.187420 -0.459924 -4.150357
v 1.343771 -0.459924 -4.529318
v 1.343771 1.640077 -4.529318
v 2.187421 1.640077 -4.150357
v 0.206895 -0.459924 -4.671185
v 0.206895 1.640077 -4.671185
v -0.808617 -0.459924 -4.546534
v -0.808617 1.640077 -4.546534
v -1.740688 -0.459924 -4.136891
v -1.740688 1.640077 -4.136891
v -2.138729 1.242206 2.744744
v -2.055694 0.404631 3.066888
v -1.680200 0.404631 3.066888
v -1.680471 1.242206 2.744743
v -2.138729 -0.255765 2.744744
v -1.680471 -0.255765 2.744743
v -2.137096 -0.459924 2.757210
v 2.585363 -0.459924 2.757208
v 2.585363 1.249713 2.757208
v -2.137096 1.249713 2.757210
v -0.808617 1.640077 -4.546534
v -1.740688 1.640077 -4.136891
v -1.361512 1.640077 -3.137247
v 1.809774 1.640077 -3.120013
v 2.187421 1.640077 -4.150357
v 1.343771 1.640077 -4.529318
v 3.326478 1.640077 -0.052139
v -2.960704 1.640077 -0.054075
v -2.957006 1.640077 -0.841307
v -2.616246 1.640077 -1.894004
v -2.082445 1.640077 -2.565763
v 3.337747 1.640077 -0.841154
v 3.072345 1.640077 -1.816324
v 2.548852 1.640077 -2.565733
v 0.206895 1.640077 -4.671185
vt 0.591763 0.391293
vt 0.732569 0.391293
vt 0.691328 0.489997
vt 0.591763 0.530881
vt 0.492199 0.489997
vt 0.450958 0.391293
vt 0.492199 0.292590
vt 0.591763 0.251706
vt 0.691328 0.292590
vt 5.250000 -0.138098
vt 6.125000 -0.008227
vt 5.250000 -0.008227
vt 6.125000 -0.138098
vt 7.000000 -0.008227
vt 7.000000 -0.138098
vt 0.000000 -0.138098
vt 0.875000 -0.008227
vt 0.000000 -0.008227
vt 0.875000 -0.138098
vt 1.750000 -0.008227
vt 1.750000 -0.138098
vt 2.625000 -0.008227
vt 2.625000 -0.138098
vt 3.500000 -0.008227
vt 3.500000 -0.138098
vt 4.375000 -0.008227
vt 4.375000 -0.138098
vt 0.051215 -0.003581
vt 0.407677 -0.003581
vt 0.407677 0.187790
vt 0.051215 0.152216
vt 0.507791 -0.003581
vt 0.507791 0.187790
vt 0.631525 -0.003581
vt 0.631525 0.187790
vt 0.726613 -0.003581
vt 0.726613 0.187790
vt 0.796943 -0.003581
vt 0.796943 0.187790
vt 0.927678 -0.003581
vt 0.927678 0.187790
vt 0.925969 -0.003581
vt 0.799130 -0.003581
vt 0.799130 0.187790
vt 0.925969 0.187790
vt 0.726618 -0.003581
vt 0.726618 0.187790
vt 0.641382 -0.003581
vt 0.641382 0.187790
vt 0.507811 -0.003581
vt 0.507811 0.187790
vt 0.407923 -0.003581
vt 0.407923 0.187790
vt 0.051215 -0.003581
vt 0.051215 0.152216
vt 0.052797 0.151532
vt 0.011922 0.075205
vt 0.011922 0.075205
vt 0.052797 0.151532
vt 0.052797 0.015023
vt 0.052797 0.015023
vt 0.002408 0.267012
vt 0.002408 0.400726
vt 0.374749 0.400726
vt 0.374749 0.267012
vt 0.002408 0.580915
vt 0.374749 0.580915
vt 0.002408 0.741869
vt 0.374749 0.741869
vt 0.002408 0.889598
vt 0.374749 0.889598
vt 0.052797 0.151532
vt 0.011922 0.075205
vt 0.011922 0.075205
vt 0.052797 0.151532
vt 0.052797 0.015023
vt 0.052797 0.015023
vt 0.047448 0.887225
vt 0.047448 0.287940
vt 0.047448 0.287940
vt 0.047448 0.887225
vt 0.982387 0.718639
vt 0.929949 0.836920
vt 0.801987 0.788802
vt 0.799780 0.386362
vt 0.931673 0.338438
vt 0.980183 0.445498
vt 0.407067 0.193891
vt 0.407315 0.991742
vt 0.508088 0.991272
vt 0.642841 0.948029
vt 0.728832 0.880289
vt 0.508067 0.192461
vt 0.632897 0.226141
vt 0.728828 0.292572
vt 0.998343 0.589769
vn 0.0000 1.0000 0.0000
vn -0.0000 0.1342 -0.9910
vn -0.7007 0.1342 -0.7007
vn -0.9910 0.1342 0.0000
vn -0.7007 0.1342 0.7007
vn 0.0000 0.1342 0.9910
vn 0.7007 0.1342 0.7007
vn 0.9910 0.1342 -0.0000
vn 0.7007 0.1342 -0.7007
vn 0.9669 0.0000 0.2551
vn 0.9908 -0.0000 0.1357
vn 0.9915 0.0000 0.1303
vn 0.9921 -0.0000 -0.1254
vn 0.9057 -0.0000 -0.4239
vn 0.7189 -0.0000 -0.6951
vn 0.6859 -0.0000 -0.7277
vn 0.9389 -0.0000 0.3441
vn -0.9350 0.0000 0.3547
vn -0.8736 0.0000 0.4867
vn -0.7067 0.0000 -0.7075
vn -0.8813 0.0000 -0.4726
vn -0.9874 0.0000 -0.1582
vn -0.9902 0.0000 0.1397
vn -0.9911 0.0000 0.1333
vn -0.9597 0.0000 0.2811
vn 0.0000 0.4912 0.8711
vn 0.0000 0.5125 0.8587
vn -0.0000 0.4689 0.8833
vn 0.0000 -0.5672 0.8236
vn -0.0000 -0.5387 0.8425
vn 0.0000 -0.5671 0.8236
vn 0.0000 0.4911 0.8711
vn 0.0000 -0.5388 0.8425
vn 0.0000 0.4689 0.8832
vn 0.0000 0.5126 0.8586
vn 0.4098 -0.0000 -0.9122
vn 0.2698 -0.0000 -0.9629
vn 0.0010 0.0000 -1.0000
vn -0.2649 0.0000 -0.9643
vn -0.4024 0.0000 -0.9155
vn -0.0000 0.4688 0.8833
vn -0.0000 0.4913 0.8710
vn -0.0001 0.5126 0.8586
vn -0.0000 -0.5673 0.8235
vn -0.0001 0.4911 0.8711
vn -0.0000 -0.5386 0.8426
vn 0.0000 0.4687 0.8833
vn 0.0000 0.0000 1.0000
vn -0.0000 0.9980 0.0626
vn -0.0000 0.9981 0.0622
usemtl Material__65
s 1
f 1/1/1 2/2/1 3/3/1
f 1/1/1 3/3/1 4/4/1
f 1/1/1 4/4/1 5/5/1
f 1/1/1 5/5/1 6/6/1
f 1/1/1 6/6/1 7/7/1
f 1/1/1 7/7/1 8/8/1
f 1/1/1 8/8/1 9/9/1
f 1/1/1 9/9/1 2/2/1
f 10/10/2 11/11/3 12/12/2
f 10/10/2 13/13/3 11/11/3
f 13/13/3 14/14/4 11/11/3
f 13/13/3 15/15/4 14/14/4
f 15/16/4 16/17/5 14/18/4
f 15/16/4 17/19/5 16/17/5
f 17/19/5 18/20/6 16/17/5
f 17/19/5 19/21/6 18/20/6
f 19/21/6 20/22/7 18/20/6
f 19/21/6 21/23/7 20/22/7
f 21/23/7 22/24/8 20/22/7
f 21/23/7 23/25/8 22/24/8
f 23/25/8 24/26/9 22/24/8
f 23/25/8 25/27/9 24/26/9
f 25/27/9 12/12/2 24/26/9
f 25/27/9 10/10/2 12/12/2
f 26/28/10 27/29/11 28/30/12
f 26/28/10 28/30/12 29/31/10
f 27/29/11 30/32/13 31/33/13
f 27/29/11 31/33/13 28/30/12
f 30/32/13 32/34/14 33/35/14
f 30/32/13 33/35/14 31/33/13
f 32/34/14 34/36/15 35/37/15
f 32/34/14 35/37/15 33/35/14
f 34/36/15 36/38/16 37/39/16
f 34/36/15 37/39/16 35/37/15
f 36/38/16 38/40/17 39/41/17
f 36/38/16 39/41/17 37/39/16
f 40/42/18 41/43/19 42/44/19
f 40/42/18 42/44/19 43/45/18
f 41/43/19 44/46/20 45/47/20
f 41/43/19 45/47/20 42/44/19
f 44/46/20 46/48/21 47/49/21
f 44/46/20 47/49/21 45/47/20
f 46/48/21 48/50/22 49/51/22
f 46/48/21 49/51/22 47/49/21
f 48/50/22 50/52/23 51/53/24
f 48/50/22 51/53/24 49/51/22
f 50/52/23 52/54/25 53/55/25
f 50/52/23 53/55/25 51/53/24
f 54/56/26 55/57/26 56/58/27
f 54/56/26 56/58/27 57/59/28
f 55/57/26 58/60/29 59/61/30
f 55/57/26 59/61/30 56/58/27
f 58/60/31 55/57/32 54/56/32
f 59/61/33 57/59/34 56/58/35
f 60/62/36 61/63/37 62/64/37
f 60/62/36 62/64/37 63/65/36
f 61/63/37 64/66/38 65/67/38
f 61/63/37 65/67/38 62/64/37
f 64/66/38 66/68/39 67/69/39
f 64/66/38 67/69/39 65/67/38
f 66/68/39 68/70/40 69/71/40
f 66/68/39 69/71/40 67/69/39
f 70/72/41 71/73/35 72/74/32
f 70/72/41 72/74/32 73/75/42
f 71/73/43 74/76/30 75/77/44
f 71/73/43 75/77/44 72/74/45
f 74/76/46 71/73/35 70/72/47
f 75/77/44 73/75/42 72/74/32
f 76/78/48 77/79/48 78/80/48
f 76/78/48 78/80/48 79/81/48
f 80/82/1 81/83/1 82/84/1
f 83/85/1 84/86/1 85/87/1
f 79/81/48 78/80/48 86/88/49
f 87/89/50 79/81/48 86/88/49
f 88/90/1 87/89/50 86/88/49
f 89/91/1 88/90/1 86/88/49
f 90/92/1 89/91/1 86/88/49
f 82/84/1 90/92/1 86/88/49
f 82/84/1 86/88/49 91/93/1
f 82/84/1 91/93/1 92/94/1
f 82/84/1 92/94/1 93/95/1
f 82/84/1 93/95/1 83/85/1
f 80/82/1 82/84/1 83/85/1
f 94/96/1 80/82/1 83/85/1
f 94/96/1 83/85/1 85/87/1
